PathFileType	4	(X/Y/Z)	/home/nbianco/projects/addbio/data/HamnerRunning2013/Processed/subject02//results/MarkerData/run400.trc
DataRate	CameraRate	NumFrames	NumMarkers	Units	OrigDataRate	OrigDataStartFrame	OrigNumFrames
120.005	120.005	8	42	m	120.005	223	255
Frame#	Time	C7			CLAV			LACR			LASI			LCAL			LFAradius			LFAsuperior			LFAulna			LLEL			LMEL			LMT5			LPSI			LTB1			LTB2			LTB3			LTH1			LTH2			LTH3			LTOE			LUA1			LUA2			LUA3			RACR			RASI			RCAL			RFAradius			RFAsuperior			RFAulna			RLEL			RMEL			RMT5			RPSI			RTB1			RTB2			RTB3			RTH1			RTH2			RTH3			RTOE			RUA1			RUA2			RUA3		
		X1	Y1	Z1	X2	Y2	Z2	X3	Y3	Z3	X4	Y4	Z4	X5	Y5	Z5	X6	Y6	Z6	X7	Y7	Z7	X8	Y8	Z8	X9	Y9	Z9	X10	Y10	Z10	X11	Y11	Z11	X12	Y12	Z12	X13	Y13	Z13	X14	Y14	Z14	X15	Y15	Z15	X16	Y16	Z16	X17	Y17	Z17	X18	Y18	Z18	X19	Y19	Z19	X20	Y20	Z20	X21	Y21	Z21	X22	Y22	Z22	X23	Y23	Z23	X24	Y24	Z24	X25	Y25	Z25	X26	Y26	Z26	X27	Y27	Z27	X28	Y28	Z28	X29	Y29	Z29	X30	Y30	Z30	X31	Y31	Z31	X32	Y32	Z32	X33	Y33	Z33	X34	Y34	Z34	X35	Y35	Z35	X36	Y36	Z36	X37	Y37	Z37	X38	Y38	Z38	X39	Y39	Z39	X40	Y40	Z40	X41	Y41	Z41	X42	Y42	Z42

224	1.95833	0.946168	1.52919	-0.331185	1.07488	1.43727	-0.309045	1.00934	1.47868	-0.510338	0.991346	1.04042	-0.438617	1.00384	0.100717	-0.339866	1.0677	1.14616	-0.515058	0.932117	1.15923	-0.638641	1.06029	1.07922	-0.541577	0.841384	1.18134	-0.664175	0.793466	1.1738	-0.590428	1.16973	0.0551598	-0.408332	0.812527	1.06633	-0.346037	1.17791	0.420254	-0.375926	1.14365	0.334178	-0.425159	1.13724	0.224108	-0.351836	0.989969	0.84449	-0.495535	1.10028	0.758624	-0.478322	1.08987	0.633738	-0.453714	1.23756	0.0784466	-0.314988	0.974596	1.40036	-0.59069	0.972003	1.32792	-0.591816	0.875255	1.33253	-0.591332	1.04724	1.50893	-0.170746	1.00237	1.01663	-0.181302	0.48434	0.662161	-0.323934	1.0955	1.15507	-0.1563	0.983188	1.18808	-0.0176795	1.09742	1.10403	-0.103035	0.887396	1.2241	0.0212581	0.836333	1.21948	-0.0482993	0.375498	0.538307	-0.233063	0.817562	1.05427	-0.264305	0.755878	0.462017	-0.28913	0.691768	0.503925	-0.226864	0.639362	0.421986	-0.301321	0.92031	0.836619	-0.149757	0.946205	0.725556	-0.16372	0.861882	0.630216	-0.20632	0.377925	0.454059	-0.310026	1.01518	1.41601	-0.0841855	0.995609	1.32894	-0.0775216	0.929281	1.34763	-0.0366542
225	1.96667	0.946913	1.52479	-0.332425	1.07474	1.43107	-0.308278	1.01039	1.47156	-0.511895	0.988552	1.03825	-0.44017	0.971949	0.101665	-0.340036	1.07712	1.1329	-0.513744	0.943876	1.14524	-0.641682	1.07125	1.06652	-0.541643	0.854094	1.16786	-0.668418	0.803959	1.15907	-0.595459	1.13689	0.0554593	-0.408657	0.809518	1.06052	-0.343128	1.16608	0.41596	-0.375801	1.1286	0.331905	-0.425482	1.11393	0.222253	-0.352293	0.985606	0.841563	-0.496219	1.09543	0.756802	-0.480905	1.0864	0.631187	-0.456551	1.20574	0.0770175	-0.315062	0.979896	1.38907	-0.591342	0.978581	1.31629	-0.590789	0.882209	1.31907	-0.595802	1.04495	1.50352	-0.169571	0.999481	1.01029	-0.180192	0.510104	0.664339	-0.321142	1.08859	1.132	-0.149369	0.973878	1.17659	-0.0159819	1.0872	1.08413	-0.0934444	0.87807	1.21857	0.0176912	0.829772	1.21377	-0.0530522	0.402784	0.541997	-0.226554	0.813983	1.0481	-0.262384	0.778889	0.458297	-0.286995	0.716059	0.501246	-0.224325	0.663838	0.419131	-0.298665	0.923302	0.830569	-0.150077	0.954503	0.721227	-0.163309	0.875301	0.621709	-0.206293	0.402657	0.456945	-0.302685	1.01195	1.40774	-0.0843263	0.988979	1.32097	-0.0799047	0.923256	1.34083	-0.0383494
226	1.975	0.947629	1.52117	-0.333544	1.07427	1.42588	-0.307633	1.0114	1.46507	-0.513137	0.986679	1.03657	-0.442179	0.940133	0.102437	-0.339791	1.08728	1.12056	-0.511725	0.956757	1.13252	-0.642938	1.08301	1.05465	-0.541176	0.867952	1.15528	-0.671858	0.8153	1.14525	-0.59992	1.10405	0.0550704	-0.408924	0.807372	1.05585	-0.340614	1.15175	0.408629	-0.375989	1.11043	0.326205	-0.425276	1.08896	0.217813	-0.352157	0.980939	0.837527	-0.496538	1.08832	0.752998	-0.482704	1.07808	0.625712	-0.457106	1.1741	0.0749395	-0.315213	0.985133	1.37899	-0.591423	0.985782	1.3057	-0.589058	0.890008	1.30677	-0.599696	1.04269	1.49885	-0.168926	0.996456	1.00524	-0.179134	0.535041	0.664429	-0.317391	1.08005	1.10907	-0.141439	0.96396	1.1653	-0.0147756	1.07537	1.06452	-0.0833994	0.868809	1.21355	0.0135228	0.823345	1.20874	-0.0583587	0.431043	0.541045	-0.220565	0.811034	1.04335	-0.260673	0.803361	0.455049	-0.285284	0.741625	0.498382	-0.221747	0.689587	0.416093	-0.295973	0.926438	0.825855	-0.150196	0.964384	0.71782	-0.16298	0.890237	0.614681	-0.205223	0.429284	0.456308	-0.296835	1.00888	1.40101	-0.0848473	0.982474	1.31439	-0.082963	0.917489	1.33487	-0.0405726
227	1.98333	0.948021	1.51802	-0.33444	1.07362	1.42157	-0.307004	1.01291	1.4591	-0.513707	0.9854	1.03488	-0.444163	0.908083	0.103146	-0.33911	1.09833	1.11009	-0.509294	0.971175	1.12233	-0.641806	1.09555	1.04444	-0.540072	0.882866	1.14412	-0.674138	0.827602	1.13275	-0.603897	1.07107	0.0545694	-0.408958	0.805779	1.05266	-0.339208	1.13508	0.399428	-0.376389	1.0895	0.318425	-0.424507	1.06233	0.212047	-0.351253	0.976055	0.832781	-0.496827	1.07978	0.746193	-0.48353	1.06593	0.617913	-0.455544	1.14197	0.0729574	-0.315238	0.990034	1.37061	-0.590755	0.993567	1.29675	-0.586959	0.898474	1.29632	-0.602257	1.04055	1.49491	-0.168676	0.993598	1.00147	-0.178779	0.558826	0.66249	-0.312882	1.07003	1.08715	-0.132792	0.953524	1.15497	-0.0141274	1.06187	1.04601	-0.0731423	0.859615	1.20924	0.00893512	0.817184	1.20471	-0.0641951	0.459653	0.535908	-0.215189	0.808669	1.03993	-0.259824	0.828983	0.452268	-0.283737	0.768075	0.495437	-0.219117	0.716215	0.412979	-0.293228	0.929576	0.822111	-0.150431	0.975636	0.715465	-0.162717	0.906701	0.609078	-0.203321	0.457472	0.452245	-0.292429	1.00562	1.39608	-0.0856042	0.976268	1.3094	-0.0863372	0.911992	1.33	-0.0431729
228	1.99167	0.947912	1.51516	-0.33518	1.07291	1.41799	-0.306164	1.01531	1.45378	-0.513594	0.984204	1.03296	-0.445746	0.875692	0.103945	-0.338227	1.11016	1.10239	-0.50663	0.986893	1.11539	-0.638501	1.10865	1.03674	-0.538167	0.898293	1.13479	-0.6751	0.840607	1.1219	-0.607371	1.03785	0.0543377	-0.408753	0.804353	1.05098	-0.3392	1.11636	0.39019	-0.376835	1.06669	0.310677	-0.423581	1.03451	0.206688	-0.350136	0.970952	0.828236	-0.497322	1.07083	0.736943	-0.483669	1.05207	0.609443	-0.453256	1.10912	0.0716702	-0.315147	0.994567	1.36394	-0.589388	1.00158	1.28974	-0.584859	0.907082	1.28799	-0.60286	1.03838	1.4917	-0.168485	0.991066	0.998788	-0.179522	0.581293	0.658464	-0.307876	1.05874	1.06726	-0.123933	0.942654	1.14654	-0.0138746	1.04674	1.02958	-0.0630569	0.850276	1.206	0.00423533	0.811193	1.20199	-0.07035	0.488005	0.527233	-0.210493	0.806662	1.03759	-0.260132	0.855475	0.450112	-0.282125	0.794956	0.492467	-0.216507	0.74327	0.409842	-0.290504	0.932619	0.819033	-0.150942	0.987757	0.714503	-0.16249	0.924529	0.604952	-0.200995	0.48681	0.444989	-0.289275	1.00165	1.39282	-0.0862876	0.970385	1.30591	-0.0893922	0.906536	1.3264	-0.0458275
229	2	0.947404	1.51266	-0.335914	1.07223	1.41507	-0.30489	1.01869	1.44944	-0.513064	0.982702	1.03091	-0.446924	0.843101	0.104954	-0.337398	1.1223	1.0981	-0.503724	1.0028	1.11146	-0.634143	1.12195	1.03229	-0.535302	0.913356	1.12753	-0.674912	0.853671	1.11295	-0.610086	1.00446	0.0543797	-0.40847	0.802869	1.0506	-0.340362	1.09596	0.382275	-0.377168	1.04285	0.304457	-0.422929	1.00614	0.202745	-0.349442	0.965551	0.824685	-0.498071	1.06197	0.727162	-0.48359	1.03829	0.601964	-0.451853	1.07584	0.07099	-0.315026	0.999084	1.35868	-0.587596	1.00932	1.28463	-0.582958	0.915203	1.2815	-0.601483	1.03582	1.48923	-0.167988	0.988887	0.99701	-0.181284	0.602369	0.652212	-0.302637	1.04631	1.05059	-0.115334	0.931242	1.14076	-0.0136868	1.03008	1.0162	-0.0536194	0.840386	1.20429	-0.000224084	0.804701	1.20087	-0.0763471	0.515631	0.515564	-0.206558	0.804848	1.03614	-0.261419	0.882587	0.44895	-0.280393	0.821872	0.489557	-0.214018	0.770355	0.406766	-0.2879	0.935646	0.816659	-0.151666	1.00022	0.715388	-0.16226	0.943343	0.602644	-0.198627	0.516831	0.434827	-0.287168	0.996576	1.39087	-0.0865882	0.964629	1.30375	-0.0914148	0.900651	1.32416	-0.0482397
230	2.00833	0.946833	1.51077	-0.336706	1.07159	1.41289	-0.303092	1.02271	1.44652	-0.512377	0.98082	1.02899	-0.447958	0.810522	0.106211	-0.336719	1.13405	1.09754	-0.500431	1.01735	1.1096	-0.630169	1.13509	1.03151	-0.531444	0.927199	1.12233	-0.673949	0.866117	1.10605	-0.611636	0.971014	0.054521	-0.408261	0.801343	1.05114	-0.342142	1.07417	0.376014	-0.377297	1.0185	0.300036	-0.422685	0.97759	0.200181	-0.349337	0.959759	0.822339	-0.49899	1.05305	0.718925	-0.483643	1.02513	0.596289	-0.45216	1.04252	0.0704416	-0.314905	1.00416	1.35464	-0.585674	1.01641	1.28132	-0.581187	0.922447	1.27642	-0.598896	1.0327	1.48747	-0.166958	0.987044	0.996088	-0.183625	0.622033	0.643578	-0.297404	1.03274	1.03835	-0.107314	0.918883	1.13798	-0.013244	1.01213	1.00669	-0.0453192	0.8295	1.20461	-0.00416181	0.796512	1.20167	-0.081561	0.542343	0.501168	-0.203494	0.80323	1.0355	-0.263212	0.910035	0.449233	-0.278645	0.848551	0.486878	-0.211712	0.797208	0.403917	-0.285479	0.938894	0.815368	-0.15241	1.01268	0.718507	-0.161993	0.962603	0.60268	-0.196411	0.547163	0.422018	-0.285973	0.990328	1.3899	-0.0863603	0.95858	1.3028	-0.091943	0.893779	1.32342	-0.0503424
231	2.01667	0.946538	1.50979	-0.337432	1.07101	1.41161	-0.30084	1.02689	1.44534	-0.511565	0.978803	1.02747	-0.449048	0.778042	0.107703	-0.336132	1.14471	1.1007	-0.496574	1.0295	1.10892	-0.627424	1.14774	1.03447	-0.526752	0.939344	1.11911	-0.672538	0.87764	1.10123	-0.611709	0.937563	0.0546353	-0.408145	0.799968	1.05227	-0.343975	1.05122	0.370927	-0.377228	0.993648	0.296785	-0.422684	0.948819	0.198393	-0.349518	0.953512	0.820828	-0.499935	1.04361	0.71322	-0.483925	1.01205	0.592242	-0.453908	1.00934	0.0696924	-0.314746	1.01022	1.35202	-0.583717	1.02283	1.27978	-0.579293	0.928843	1.27261	-0.596343	1.02913	1.48639	-0.165363	0.985546	0.996043	-0.186013	0.640301	0.632432	-0.292383	1.01804	1.03138	-0.100144	0.905047	1.13804	-0.0124039	0.993324	1.00152	-0.038559	0.81735	1.20732	-0.00746446	0.785616	1.20471	-0.0855355	0.568327	0.484059	-0.201391	0.801936	1.03573	-0.26501	0.937474	0.451253	-0.277045	0.87483	0.484671	-0.209616	0.823679	0.40153	-0.283266	0.942616	0.815635	-0.152976	1.02489	0.724031	-0.161679	0.98174	0.605461	-0.194318	0.577732	0.40678	-0.285613	0.983226	1.38982	-0.085663	0.951719	1.30311	-0.0910308	0.885517	1.32441	-0.0523424
